<!--
The MIT License (MIT)

Copyright (c) 2014 Code Charm Ltd

Permission is hereby granted, free of charge, to any person obtaining a copy of
this software and associated documentation files (the "Software"), to deal in
the Software without restriction, including without limitation the rights to
use, copy, modify, merge, publish, distribute, sublicense, and/or sell copies of
the Software, and to permit persons to whom the Software is furnished to do so,
subject to the following conditions:

The above copyright notice and this permission notice shall be included in all
copies or substantial portions of the Software.

THE SOFTWARE IS PROVIDED "AS IS", WITHOUT WARRANTY OF ANY KIND, EXPRESS OR
IMPLIED, INCLUDING BUT NOT LIMITED TO THE WARRANTIES OF MERCHANTABILITY, FITNESS
FOR A PARTICULAR PURPOSE AND NONINFRINGEMENT. IN NO EVENT SHALL THE AUTHORS OR
COPYRIGHT HOLDERS BE LIABLE FOR ANY CLAIM, DAMAGES OR OTHER LIABILITY, WHETHER
IN AN ACTION OF CONTRACT, TORT OR OTHERWISE, ARISING FROM, OUT OF OR IN
CONNECTION WITH THE SOFTWARE OR THE USE OR OTHER DEALINGS IN THE SOFTWARE.
-->

<svg xmlns="http://www.w3.org/2000/svg" xmlns:xlink="http://www.w3.org/1999/xlink">

<!-- from https://github.com/encharm/Font-Awesome-SVG-PNG/blame/3cfbcdaff9818c3e2c07d755d556fe1f34d7cf0d/black/svg/reddit.svg -->
<symbol id="reddit" fill-rule="evenodd" clip-rule="evenodd" stroke-linejoin="round" stroke-miterlimit="1.414" width="16" height="16" viewBox="0 0 1792 1792"><path d="M1095 1167q16 16 0 31-62 62-199 62t-199-62q-16-15 0-31 6-6 15-6t15 6q48 49 169 49 120 0 169-49 6-6 15-6t15 6zm-307-181q0 37-26 63t-63 26-63.5-26-26.5-63q0-38 26.5-64t63.5-26 63 26.5 26 63.5zm395 0q0 37-26.5 63t-63.5 26-63-26-26-63 26-63.5 63-26.5 63.5 26 26.5 64zm251-120q0-49-35-84t-85-35-86 36q-130-90-311-96l63-283 200 45q0 37 26 63t63 26 63.5-26.5 26.5-63.5-26.5-63.5-63.5-26.5q-54 0-80 50l-221-49q-19-5-25 16l-69 312q-180 7-309 97-35-37-87-37-50 0-85 35t-35 84q0 35 18.5 64t49.5 44q-6 27-6 56 0 142 140 243t337 101q198 0 338-101t140-243q0-32-7-57 30-15 48-43.5t18-63.5zm358 30q0 182-71 348t-191 286-286 191-348 71-348-71-286-191-191-286-71-348 71-348 191-286 286-191 348-71 348 71 286 191 191 286 71 348z"/></symbol>

<!-- from https://github.com/encharm/Font-Awesome-SVG-PNG/blob/master/black/svg/telegram.svg -->
<symbol id="telegram" fill-rule="evenodd" clip-rule="evenodd" stroke-linejoin="round" stroke-miterlimit="1.414" width="16" height="16" viewBox="0 0 1792 1792"><path d="M1189 1307l147-693q9-44-10.5-63t-51.5-7l-864 333q-29 11-39.5 25t-2.5 26.5 32 19.5l221 69 513-323q21-14 32-6 7 5-4 15l-415 375-16 228q23 0 45-22l108-104 224 165q64 36 81-38zm603-411q0 182-71 348t-191 286-286 191-348 71-348-71-286-191-191-286-71-348 71-348 191-286 286-191 348-71 348 71 286 191 191 286 71 348z"/></symbol>

</svg>